<?xml version="1.0" ?><!DOCTYPE svg  PUBLIC '-//W3C//DTD SVG 1.1//EN'  'http://www.w3.org/Graphics/SVG/1.1/DTD/svg11.dtd'><svg enable-background="new 0 0 160 80" id="Layer_1" version="1.1" viewBox="0 0 160 80" xml:space="preserve" xmlns="http://www.w3.org/2000/svg" xmlns:xlink="http://www.w3.org/1999/xlink"><g><rect height="7" width="7" x="63" y="6"/><rect height="6" width="7" x="70" y="13"/><rect height="7" width="7" x="90" y="6"/><rect height="7" width="7" x="63" y="19"/><rect height="7" width="7" x="90" y="19"/><rect height="6" width="7" x="83" y="13"/><rect height="7" width="7" x="70" y="19"/><rect height="7" width="7" x="83" y="19"/><rect height="7" width="6" x="77" y="19"/><rect height="7" width="6" x="97" y="26"/><rect height="6" width="7" x="103" y="33"/><rect height="7" width="6" x="77" y="26"/><rect height="7" width="6" x="57" y="26"/><rect height="6" width="7" x="50" y="33"/><rect height="7" width="7" x="63" y="26"/><rect height="7" width="7" x="90" y="26"/><rect height="6" width="7" x="70" y="33"/><rect height="6" width="6" x="97" y="33"/><rect height="6" width="6" x="77" y="33"/><rect height="6" width="6" x="57" y="33"/><rect height="6" width="7" x="63" y="33"/><rect height="6" width="7" x="90" y="33"/><rect height="6" width="7" x="83" y="33"/><rect height="7" width="7" x="103" y="39"/><rect height="7" width="7" x="50" y="39"/><rect height="7" width="7" x="70" y="39"/><rect height="7" width="6" x="77" y="39"/><rect height="7" width="7" x="63" y="39"/><rect height="7" width="7" x="90" y="39"/><rect height="7" width="7" x="83" y="39"/><rect height="6" width="7" x="70" y="53"/><rect height="6" width="7" x="83" y="53"/><rect height="7" width="7" x="70" y="59"/><rect height="7" width="7" x="63" y="59"/><rect height="7" width="7" x="90" y="59"/><rect height="7" width="7" x="83" y="59"/><rect height="7" width="7" x="103" y="46"/><rect height="7" width="7" x="50" y="46"/><rect height="7" width="7" x="70" y="46"/><rect height="7" width="6" x="77" y="46"/><rect height="7" width="7" x="63" y="46"/><rect height="7" width="7" x="90" y="46"/><rect height="7" width="7" x="83" y="46"/></g></svg>