<?xml version="1.0" ?><!DOCTYPE svg  PUBLIC '-//W3C//DTD SVG 1.1//EN'  'http://www.w3.org/Graphics/SVG/1.1/DTD/svg11.dtd'><svg enable-background="new 0 0 160 80" id="Layer_1" version="1.1" viewBox="0 0 160 80" xml:space="preserve" xmlns="http://www.w3.org/2000/svg" xmlns:xlink="http://www.w3.org/1999/xlink"><g><rect height="8" width="7" x="45" y="13"/><rect height="7" width="8" x="37" y="6"/><rect height="7" width="7" x="30" y="6"/><rect height="7" width="7" x="45" y="6"/><rect height="7" width="8" x="52" y="6"/><rect height="7" width="8" x="60" y="6"/><rect height="7" width="8" x="68" y="6"/><rect height="7" width="7" x="76" y="6"/><rect height="7" width="7" x="30" y="21"/><rect height="8" width="7" x="30" y="13"/><rect height="8" width="7" x="30" y="28"/><rect height="8" width="7" x="30" y="36"/><rect height="7" width="7" x="30" y="44"/><rect height="8" width="7" x="30" y="51"/><rect height="7" width="7" x="30" y="59"/><rect height="7" width="8" x="121" y="21"/><rect height="8" width="8" x="121" y="13"/><rect height="8" width="8" x="121" y="28"/><rect height="8" width="8" x="121" y="36"/><rect height="7" width="8" x="121" y="44"/><rect height="8" width="8" x="121" y="51"/><rect height="7" width="8" x="121" y="59"/><rect height="7" width="8" x="83" y="6"/><rect height="7" width="8" x="91" y="6"/><rect height="7" width="8" x="99" y="6"/><rect height="7" width="8" x="52" y="21"/><rect height="8" width="8" x="60" y="28"/><rect height="8" width="8" x="68" y="36"/><rect height="8" width="8" x="83" y="36"/><rect height="8" width="8" x="91" y="28"/><rect height="7" width="8" x="99" y="21"/><rect height="7" width="7" x="76" y="44"/><rect height="8" width="8" x="107" y="13"/><rect height="7" width="6" x="115" y="6"/><rect height="7" width="8" x="121" y="6"/><rect height="7" width="8" x="107" y="6"/><rect height="7" width="8" x="37" y="59"/><rect height="7" width="7" x="45" y="59"/><rect height="7" width="8" x="52" y="59"/><rect height="7" width="8" x="60" y="59"/><rect height="7" width="8" x="68" y="59"/><rect height="7" width="7" x="76" y="59"/><rect height="7" width="8" x="83" y="59"/><rect height="7" width="8" x="91" y="59"/><rect height="7" width="8" x="99" y="59"/><rect height="7" width="6" x="115" y="59"/><rect height="7" width="8" x="107" y="59"/></g></svg>