<svg xmlns:svg="http://www.w3.org/2000/svg" xmlns="http://www.w3.org/2000/svg" version="1.1" width="305" height="458" viewBox="0 0 610 458"><style>.s0{fill:#1c1c1c;}</style><path d="m372.3 62.4c-0.1 4.5-0.1 9-0.1 13.6l0 1.9-1.9 0.1c-4.5 0.1-9 0.2-13.6 0.2-0.2 45.9-0.1 91.8-0.1 137.7l0 2-2 0c-3.8 0-7.6 0.1-11.5 0.2l-2.1 0.1 0-2.1c0.1-4.5 0-9 0-13.4-15.6-0.1-31.2-0.2-46.7 0.1 0 15.5 0 31 0 46.5 4.5 0.1 9.1 0.3 13.7 0l2.5-0.2-0.4 2.5c-0.7 4.5-0.2 9-0.2 13.5 4.3 0.2 8.6 0.3 13 0.3l1.9 0 0.2 1.9c0.7 9.6 0.4 19.2 0.5 28.9 4.5 0.2 9 0.3 13.5 0.3l2 0 0 2c0.1 9.6 0.1 19.2 0.2 28.9 4.5 0.1 9.1 0.3 13.6 0l2.3-0.1-0.2 2.3c-0.8 9.6-0.1 19.3-0.2 29 4.4 0.1 8.8 0.1 13.2 0.2l2 0 0 2c0.2 14.9 0.1 29.7 0.3 44.6 25.6 0.4 51.3 0.4 77 0.4 26.3 0 52.5 0.2 78.8-0.4-0.4-14.8 0.9-29.6 0.3-44.4l-0.1-2.1 2.1 0.1c4.4 0.1 8.8 0 13.2-0.1 0.2-14.7 0.2-29.5 0.2-44.2l0-1.8 1.8-0.2c4.5-0.4 9-0.5 13.5-0.4 0.1-16.5-0.2-33 0.3-49.5l0 0 0 0c-0.5-19.8-0.2-39.7-0.4-59.5-4.4 0-8.9 0-13.3-0.1l-1.9 0 0-1.9c-0.1-4.4-0.1-8.8-0.1-13.2-4.6-0.1-9.1 0-13.6-0.2l-1.8-0.1-0.1-1.7c-0.3-4.5-0.2-9.1-0.2-13.7-9.7 0-19.3 0-29-0.1l-2 0 0-1.9c-0.1-4.4-0.1-8.7-0.1-13.1-14.8-0.8-29.7-0.3-44.6-0.4l-1.9 0-0.1-1.9c-0.2-4.5-0.3-9-0.3-13.5-9.7 0-19.3 0-28.9-0.2l-1.9 0 0-1.9c-0.2-20-0.1-40-0.1-59.9-2.6 0-5.1 0-7.7 0-1.9 0-3.8 0-5.7 0L403.2 78.2 403.3 76.2c0.1-4.6 0.1-9.2-0.4-13.7-10.2 0-20.4 0.1-30.6 0z" style="-inkscape-font-specification:Acquaintance;block-progression:tb;direction:ltr;fill:#fff;font-family:Acquaintance;font-size:medium;letter-spacing:normal;line-height:normal;text-align:start;text-anchor:start;text-decoration:none;text-indent:0;text-transform:none;word-spacing:normal;writing-mode:lr-tb"/><path d="m372.2 62.4c10.2 0.1 20.4 0 30.6 0 0.5 5.1 0.5 10.3 0.4 15.4-10.4 0.1-20.7 0-31.1 0.1 0-5.2 0.1-10.3 0.1-15.5zM356.6 78.2c5.2 0 10.3 0 15.5-0.2 0 57.1 0.1 114.2 0 171.3-5.2 0.1-10.4 0.1-15.6 0-0.1-5.1-0.1-10.2 0-15.3-5.2-0.2-10.3-0.2-15.5-0.1-0.2-5.2-0.2-10.4 0-15.7 5.2-0.2 10.3-0.1 15.5-0.2 0-46.5-0.1-93.1 0.1-139.7zM403.3 78.2c5.2-0.1 10.3 0 15.5 0 0.1 20.6-0.1 41.3 0.2 61.9 10.3 0.3 20.6 0.1 30.9 0.2 0 5.2 0 10.3 0.3 15.5 15.5 0.3 31-0.4 46.5 0.5-0.1 5 0 10.1 0.1 15.1 10.3 0.2 20.7 0.1 31 0.1 0.1 5.2-0.3 10.4 0.3 15.5 5.1 0.5 10.3 0.2 15.4 0.3-0.1 5 0 10.1 0.1 15.1 5.1 0.1 10.2 0.1 15.3 0.1 0.2 19.9-0.1 39.7 0.4 59.5-0.5 16.5-0.2 33-0.3 49.6-5.1 0-10.2-0.1-15.3 0.6 0 15.4 0 30.7-0.2 46.1-5.1 0.2-10.2 0.3-15.3 0.1-0.6-15.6-0.3-31.3-0.2-46.9 5.1 0.1 10.3 0.1 15.4 0 0-36.3 0-72.6 0.1-108.9-5.1-0.1-10.3-0.1-15.4 0-0.3-5 0-10.1-0.4-15.2-5.1-1-10.3-0.4-15.4-0.4-0.1 15.6 0.2 31.1-0.1 46.7-5.1 0-10.2 0-15.2 0-0.3-20.8 0-41.5-0.1-62.3-10.4-0.1-20.8 0-31.2 0 0 15.6 0.2 31.1 0 46.7-5.2 0.1-10.3 0.1-15.5 0-0.1-20.7-0.1-41.5 0.1-62.3-10.4 0-20.8-0.1-31.2 0.1-0.1 20.7 0.1 41.5 0 62.2-5.2 0.2-10.4 0.2-15.6 0 0-46.6 0-93.2 0.1-139.8zM294.2 202.6c15.6-0.3 31.2-0.2 46.7 0 0.1 5.2 0.2 10.3 0.1 15.5-10.3 0.2-20.7 0.1-31 0.1-0.4 10.3 0.6 20.6-0.1 30.9-5.2 0.6-10.4 0.2-15.6 0.1 0-15.5 0-31 0-46.5zM310.3 249.4c5-0.8 10.1-0.5 15.1-0.3 0.1 5.2 0.1 10.4 0.1 15.6 5.2 0 10.4 0 15.6 0.1 0.1 10.4 0 20.7 0.1 31.1 5.1 0 10.3 0 15.4 0.1-0.1 10.4 0.7 20.8-0.4 31.2-5.1 0.5-10.1 0.1-15.2 0-0.2-10.3-0.1-20.5-0.2-30.8-5.1 0-10.3-0.1-15.4-0.3-0.2-10.2 0.3-20.5-0.6-30.6-5 0-9.9-0.1-14.9-0.3 0-5.2-0.7-10.4 0.5-15.5zM356.9 327.1c5.1-0.4 10.2-0.2 15.3-0.1 0.1 10.3 0 20.7 0 31 5.2 0 10.4 0 15.6 0.2 0.1 10.3-0.1 20.7 0.1 31 41.4 0.1 82.8 0.1 124.2 0.1 0.2-10.3 0-20.7 0.1-31 5.3-0.1 10.6-0.1 15.9 0.2 0.8 15.5-0.7 31-0.2 46.5-26.3 0.6-52.5 0.4-78.8 0.4-25.6 0-51.3 0-76.9-0.4-0.2-15.5-0.1-31-0.3-46.5-5.1 0-10.1-0.1-15.2-0.2 0.1-10.4-0.7-20.8 0.3-31.1z" fill="#1c1c1c"/></svg>
