<?xml version="1.0" ?><!DOCTYPE svg  PUBLIC '-//W3C//DTD SVG 1.1//EN'  'http://www.w3.org/Graphics/SVG/1.1/DTD/svg11.dtd'><svg enable-background="new 0 0 160 80" id="Layer_1" version="1.1" viewBox="0 0 160 80" xml:space="preserve" xmlns="http://www.w3.org/2000/svg" xmlns:xlink="http://www.w3.org/1999/xlink"><g><rect height="6" width="6" x="62" y="6"/><rect height="6" width="6" x="62" y="60"/><rect height="6" width="6" x="56" y="12"/><rect height="6" width="6" x="56" y="18"/><rect height="6" width="6" x="56" y="24"/><rect height="6" width="6" x="56" y="42"/><rect height="6" width="6" x="56" y="48"/><rect height="6" width="6" x="56" y="54"/><rect height="6" width="6" x="50" y="30"/><rect height="6" width="6" x="50" y="36"/><rect height="6" width="6" x="92" y="60"/><rect height="6" width="6" x="92" y="6"/><rect height="6" width="6" x="98" y="54"/><rect height="6" width="6" x="98" y="48"/><rect height="6" width="6" x="98" y="42"/><rect height="6" width="6" x="98" y="24"/><rect height="6" width="6" x="98" y="18"/><rect height="6" width="6" x="98" y="12"/><rect height="6" width="6" x="104" y="36"/><rect height="6" width="6" x="104" y="30"/></g></svg>